<!DOCTYPE svg PUBLIC "-//W3C//DTD SVG 1.1//EN" "http://www.w3.org/Graphics/SVG/1.1/DTD/svg11.dtd">
<!-- Uploaded to: SVG Repo, www.svgrepo.com, Transformed by: SVG Repo Mixer Tools -->
<svg fill="#ffffff" version="1.1" id="Layer_1" xmlns="http://www.w3.org/2000/svg" xmlns:xlink="http://www.w3.org/1999/xlink" width="800px" height="800px" viewBox="0 0 512 512" enable-background="new 0 0 512 512" xml:space="preserve" stroke="#ffffff">
<g id="SVGRepo_bgCarrier" stroke-width="0"/>
<g id="SVGRepo_tracerCarrier" stroke-linecap="round" stroke-linejoin="round"/>
<g id="SVGRepo_iconCarrier"> <g> <path d="M237.24,363.477l-122.675-59.117c-2.226-1.063-4.819-0.918-6.896,0.388c-2.095,1.304-3.352,3.592-3.352,6.051v126.458 c0,2.739,1.575,5.245,4.042,6.437l122.68,59.117c2.221,1.063,4.819,0.917,6.896-0.386c2.095-1.306,3.352-3.595,3.352-6.053V369.912 C241.288,367.174,239.708,364.667,237.24,363.477z"/> <path d="M404.332,304.747c-2.078-1.306-4.671-1.451-6.896-0.388l-122.68,59.117c-2.463,1.19-4.043,3.697-4.043,6.436v126.459 c0,2.458,1.256,4.747,3.352,6.053c2.078,1.303,4.675,1.449,6.896,0.386l122.68-59.117c2.463-1.191,4.042-3.697,4.042-6.437V310.798 C407.683,308.339,406.427,306.051,404.332,304.747z"/> <path d="M397.597,274.589c0-2.795-1.629-5.342-4.173-6.501l-69.439-31.676c-2.674,3.265-5.604,6.343-8.924,9.041v14.843 c0,21.158-17.229,38.376-38.385,38.376h-41.351c-21.156,0-38.385-17.218-38.385-38.376v-14.843c-3.32-2.698-6.25-5.776-8.911-9.041 l-69.452,31.676c-2.544,1.159-4.173,3.706-4.173,6.501c0,2.796,1.629,5.342,4.173,6.502l134.458,61.324 c1.884,0.861,4.047,0.861,5.932,0l134.458-61.324C395.968,279.931,397.597,277.385,397.597,274.589z"/> <path d="M190.366,181.882v15.495c0,16.936,9.377,31.567,23.076,39.455v23.464c0,12.076,9.799,21.874,21.883,21.874h41.351 c12.083,0,21.883-9.798,21.883-21.874v-23.464c13.712-7.888,23.076-22.52,23.076-39.455v-15.495 c21.367-18.87,33.517-45.637,33.517-74.247c0-58.414-50.76-105.147-110.48-98.522c-45.021,5.012-81.652,41.276-87.082,86.244 C153.623,128.254,165.823,160.208,190.366,181.882z M274.387,221.821h-36.756v-89.338h36.756V221.821z M178.669,97.903 c4.253-35.292,33.001-63.759,68.339-67.698c3.046-0.33,6.026-0.5,8.992-0.5c42.975,0,77.915,34.952,77.915,77.93 c0,23.841-10.75,46.071-29.492,60.977l-4.011,3.192v25.573c0,10.281-6.412,19.063-15.421,22.665v-87.559h3.868 c8.668,0,15.695-7.033,15.695-15.711v-8.292c0-8.678-7.026-15.711-15.695-15.711h-65.715c-8.668,0-15.695,7.033-15.695,15.711 v8.292c0,8.678,7.026,15.711,15.695,15.711h3.868v87.559c-9.01-3.603-15.408-12.384-15.408-22.665v-25.573l-4.025-3.192 C186.175,151.604,175.38,125.16,178.669,97.903z"/> </g> </g>
</svg>